<svg width="143" height="126" fill="none" xmlns="http://www.w3.org/2000/svg"><path d="M135.338 6.477c0-1.543 0-3.344.511-4.887.255-1.543 3.065-1.543 3.32 0 .256 1.543.256 3.087.511 4.63v2.829c0 .514 0 1.028-.255 1.543l-.767.771c.511-.257.511-.514.256 0-.511 1.029-2.043 1.029-2.299 0v-.257c-.511-.514-.511-1.029-.511-1.8-.766-.772-.766-1.8-.766-2.83zm4.342 21.088c0-.771 1.022-.771 1.277 0 .255 4.63 1.532 9.259 1.532 13.888 0 2.829-4.341 2.829-4.341 0 0-4.63 1.021-9.259 1.532-13.888zm-1.788 29.575c-.255-1.028 1.277-2.057 2.043-.77 1.022 2.314 1.788 4.628 2.043 7.2.256 2.315.767 4.63-.255 6.687-.511 1.028-2.043 1.028-2.554 0-1.021-1.543-.766-3.344-.766-5.144 0-2.829-.255-5.4-.511-7.972zm.511 35.234c1.022-2.572 1.788-4.886 2.043-7.458.255-1.543 2.554-1.543 2.554 0 0 2.314 0 4.629-.255 6.687-.256 2.314-.767 5.4-2.554 6.943-.766.771-2.554.515-2.81-.772-.51-2.057.256-3.6 1.022-5.4zm-15.579 19.288c1.277-1.028 3.32-.771 4.853-1.286 2.043-.514 3.575-1.8 4.341-3.857.511-1.287 2.554-.257 2.043.771-.766 2.572-2.298 4.372-4.341 5.658-2.043 1.029-5.108 2.315-7.151.772-.511-.515-.511-1.543.255-2.058zm-25.284 2.829c3.065-2.829 8.173-2.057 12.004-1.8 1.787 0 1.787 2.572 0 2.829-1.788 0-3.576.257-5.364.514-1.787.258-3.83 1.029-5.618.772-1.022 0-2.043-1.286-1.022-2.315zm-27.581-.514c4.341-2.572 10.47-1.8 15.067 0 1.788.771 1.022 3.343-.766 2.828-4.597-1.028-8.939 0-13.536.257-1.788.259-2.298-2.314-.766-3.085zm-25.796-1.286c4.086-1.286 8.684-.514 12.77-.257 2.043 0 2.043 3.086 0 3.086-4.086.257-8.939 1.029-12.77-.257-1.532-.257-1.532-2.058 0-2.572zm-24.262-1.029c1.788-1.799 4.087-1.028 6.385-.771 2.554.257 5.108.771 7.662 1.543 1.788.771 1.277 3.6-.766 3.086-2.554-.771-5.108-1.028-7.662-1.028-2.043 0-3.83.514-5.363-1.029-.766-.258-.766-1.286-.256-1.801z" fill="#E5E5E5"/><path d="M2.024 109.862c5.874-1.543 9.96-6.43 15.579-8.744 2.043-.772 3.065 2.314 1.532 3.6-3.83 2.572-7.15 6.172-11.237 8.744 1.532 1.287 3.065 2.572 4.853 3.858 1.787 1.286 4.597 1.8 5.874 3.6.766 1.029 1.021 2.572 0 3.601-4.853 4.372-14.558-6.172-17.623-9.516-1.788-1.8-1.022-4.628 1.022-5.143z" fill="#E5E5E5"/></svg>