<svg width="56" height="56" fill="none" xmlns="http://www.w3.org/2000/svg"><circle cx="28" cy="28" r="28" fill="#215359"/><g clip-path="url(#clip0_483:2296)"><path d="M39.96 31.244l.003-.001-4.105-8.956.996-.495-.373-.746-.97.483-.131-.286a.417.417 0 00-.758 0l-.117.256a5.36 5.36 0 00-2.254-.5h-3.5v-.832h.833v-.834h-.716l.3-1.198a1.718 1.718 0 10-3.334 0l.3 1.198h-.716v.834h.833V21h-3.498c-.78 0-1.55.171-2.256.5l-.117-.256a.417.417 0 00-.758 0l-.131.286-.97-.485-.373.746.995.498-4.104 8.954a.407.407 0 00-.038.174 2.92 2.92 0 002.917 2.916h4.166a2.92 2.92 0 002.917-2.916.407.407 0 00-.042-.173l-4.116-8.99a4.53 4.53 0 011.91-.42h3.498v15.243L24.828 38.5h-1.494a2.086 2.086 0 00-2.083 2.083c0 .23.186.417.417.417h11.666c.23 0 .417-.187.417-.417a2.086 2.086 0 00-2.083-2.083h-1.495l-1.422-1.423V21.833h3.5c.66 0 1.311.144 1.91.422l-4.122 8.988a.405.405 0 00-.038.174 2.92 2.92 0 002.916 2.916h4.167a2.92 2.92 0 002.917-2.916.406.406 0 00-.042-.173zM22.083 33.5h-4.166a2.087 2.087 0 01-2.042-1.667h8.25a2.087 2.087 0 01-2.042 1.667zm1.851-2.5h-7.868l3.827-8.35a.43.43 0 00.214 0L23.935 31zm2.869-13.827a.912.912 0 011.394 0 .88.88 0 01.161.76l-.35 1.4h-1.016l-.35-1.4a.88.88 0 01.16-.76zm.28 3.827v-.833h.834V21h-.834zm.834.833v15h-.834v-15h.834zm3.75 17.5c.53 0 1.001.334 1.178.833h-10.69a1.252 1.252 0 011.178-.833h8.334zm-2.673-.833h-2.988l.833-.834h1.322l.833.834zm5.898-15.85a.284.284 0 00.211-.008L38.934 31h-7.867l3.826-8.35zm2.191 10.85h-4.167a2.087 2.087 0 01-2.041-1.667h8.25a2.087 2.087 0 01-2.042 1.667z" fill="#fff"/></g><defs><clipPath id="clip0_483:2296"><path fill="#fff" transform="translate(15 16)" d="M0 0h25v25H0z"/></clipPath></defs></svg>