<svg width="80" height="80" fill="none" xmlns="http://www.w3.org/2000/svg"><path d="M52.5 7.5H55V10h-2.5V7.5zm-12.897 6.379l1.768-1.768 1.768 1.768-1.768 1.767-1.768-1.767zm30.335 34.164l-11.852 6.843a4.925 4.925 0 00-2.151-1.24l-17.028-4.562a6.279 6.279 0 00-2.734-.113L25 51.001v-2.25a1.25 1.25 0 00-1.25-1.25h-12.5A1.25 1.25 0 0010 48.75V50H3.75a1.25 1.25 0 00-1.25 1.25v22.5A1.25 1.25 0 003.75 75H10v1.25a1.25 1.25 0 001.25 1.25h12.5A1.25 1.25 0 0025 76.25v-3.605l19.343 2.15a6.268 6.268 0 004.08-.962l26.514-17.125a4.953 4.953 0 002.5-4.333 5 5 0 00-7.5-4.332v-.001zM5 72.5v-20h5v20H5zM22.5 75h-10V50h10v25zm51.134-20.425L47.066 71.734c-.726.467-1.59.67-2.449.577L25 70.131V53.544l11.625-2.113a3.728 3.728 0 011.64.067l17.027 4.562a2.5 2.5 0 11-1.294 4.83l-12.424-3.327a1.248 1.248 0 00-1.595 1.369 1.248 1.248 0 00.947 1.044l12.42 3.33a5.002 5.002 0 006.125-3.537 4.958 4.958 0 00-.063-2.758l11.775-6.8a2.503 2.503 0 112.452 4.364h-.001z" fill="#4C858B"/><path d="M76.25 20h-6.151a17.364 17.364 0 00-.368-.887l4.353-4.354a1.25 1.25 0 000-1.768l-7.075-7.075a1.25 1.25 0 00-1.768 0L60.89 10.27c-.299-.134-.595-.25-.889-.368V3.75a1.25 1.25 0 00-1.25-1.25h-10a1.25 1.25 0 00-1.25 1.25v6.151c-.294.113-.59.234-.889.368L42.26 5.916a1.25 1.25 0 00-1.768 0l-7.075 7.075a1.25 1.25 0 000 1.768l4.353 4.352c-.134.299-.25.595-.368.889H31.25A1.25 1.25 0 0030 21.25v10a1.25 1.25 0 001.25 1.25h6.151c.113.294.234.59.368.889l-4.353 4.352a1.25 1.25 0 000 1.768l7.075 7.075a1.25 1.25 0 001.768 0l4.352-4.353c.299.134.595.25.889.368v6.151A1.25 1.25 0 0048.75 50h10A1.25 1.25 0 0060 48.75v-6.151c.294-.113.59-.234.889-.368l4.352 4.353a1.286 1.286 0 001.768 0l7.075-7.075a1.25 1.25 0 000-1.768l-4.353-4.353c.134-.3.25-.594.368-.888h6.151a1.25 1.25 0 001.25-1.25v-10A1.25 1.25 0 0076.25 20zM75 30h-5.787a1.25 1.25 0 00-1.192.875 15.406 15.406 0 01-.913 2.22 1.25 1.25 0 00.233 1.443l4.092 4.087-5.308 5.307-4.091-4.09a1.25 1.25 0 00-1.443-.234 15.39 15.39 0 01-2.22.913 1.25 1.25 0 00-.875 1.191V47.5H50v-5.788a1.25 1.25 0 00-.875-1.19 15.395 15.395 0 01-2.22-.914 1.25 1.25 0 00-1.443.233l-4.087 4.091-5.307-5.307 4.09-4.091a1.25 1.25 0 00.234-1.443 15.394 15.394 0 01-.913-2.22 1.25 1.25 0 00-1.191-.875H32.5V22.5h5.788a1.25 1.25 0 001.19-.875c.247-.763.553-1.505.914-2.22a1.25 1.25 0 00-.233-1.443l-4.091-4.087 5.307-5.307 4.091 4.09a1.25 1.25 0 001.443.235 15.39 15.39 0 012.216-.914A1.25 1.25 0 0050 10.788V5h7.5v5.787a1.25 1.25 0 00.875 1.192c.763.246 1.505.552 2.22.914a1.25 1.25 0 001.443-.234l4.087-4.091 5.308 5.307-4.092 4.091a1.25 1.25 0 00-.233 1.443c.361.715.667 1.457.913 2.22a1.25 1.25 0 001.192.875H75V30z" fill="#4C858B"/><path d="M53.75 16.25a10 10 0 1010 10 10.011 10.011 0 00-10-10zm0 17.5a7.5 7.5 0 117.5-7.5 7.508 7.508 0 01-7.5 7.5zm-36.25 40a3.75 3.75 0 100-7.5 3.75 3.75 0 000 7.5zm0-5a1.25 1.25 0 110 2.5 1.25 1.25 0 010-2.5zM35 25h2.5v2.5H35V25zm4.6 13.625l1.769-1.768 1.767 1.768-1.767 1.767-1.768-1.767zM52.5 42.5H55V45h-2.5v-2.5zm11.847-3.873l1.768-1.767 1.767 1.767-1.767 1.768-1.768-1.768zM70 25h2.5v2.5H70V25zm-5.65-11.119l1.767-1.767 1.768 1.767-1.768 1.768-1.767-1.768z" fill="#4C858B"/></svg>