<svg width="79" height="79" fill="none" xmlns="http://www.w3.org/2000/svg"><path d="M56.42 55.185l-1.746-1.745 13.94-13.94L34.05 4.937H13.578v4.938h2.681a3.703 3.703 0 110 2.469h-2.68V25.41l24.325 24.326-1.746 1.746-24.687-24.687a1.233 1.233 0 01-.361-.873V19.75H7.405a4.937 4.937 0 110-9.875h3.704V3.703a1.234 1.234 0 011.234-1.234h22.219a1.235 1.235 0 01.872.361l35.797 35.797a1.235 1.235 0 010 1.746L56.42 55.185zM20.985 11.11a1.236 1.236 0 00-1.235-1.234v2.469a1.236 1.236 0 001.235-1.235zM7.406 12.344a2.469 2.469 0 000 4.937h3.704v-4.937H7.405z" fill="#4C858B"/><path d="M43.02 26.825a3.935 3.935 0 01-2.518 2.56 3.83 3.83 0 01-1.58 2.992 4.064 4.064 0 01-3.622.651 4.117 4.117 0 01-6.413 0 4.067 4.067 0 01-3.622-.651 3.828 3.828 0 01-1.58-2.992 3.936 3.936 0 01-2.518-2.56 3.776 3.776 0 01.513-3.372 3.776 3.776 0 01-.513-3.372 3.935 3.935 0 012.518-2.56 3.83 3.83 0 011.58-2.992 4.064 4.064 0 013.622-.65 4.118 4.118 0 016.413 0 4.065 4.065 0 013.622.65 3.83 3.83 0 011.58 2.992 3.936 3.936 0 012.518 2.56 3.776 3.776 0 01-.513 3.372 3.775 3.775 0 01.513 3.372zm-2.95-4.401a1.362 1.362 0 00.596-1.6 1.496 1.496 0 00-1.536-1.047 1.234 1.234 0 01-1.191-1.66 1.369 1.369 0 00-.496-1.611 1.575 1.575 0 00-1.938-.006 1.234 1.234 0 01-1.917-.63c-.238-.78-.928-1.057-1.494-1.057-.567 0-1.257.277-1.495 1.056a1.235 1.235 0 01-1.916.63 1.574 1.574 0 00-1.938.007 1.369 1.369 0 00-.496 1.61 1.233 1.233 0 01-1.191 1.661 1.5 1.5 0 00-1.536 1.047 1.363 1.363 0 00.596 1.6 1.234 1.234 0 010 2.059 1.362 1.362 0 00-.596 1.6 1.497 1.497 0 001.536 1.046 1.235 1.235 0 011.19 1.661 1.369 1.369 0 00.497 1.61 1.575 1.575 0 001.938.007 1.234 1.234 0 011.916.63c.238.779.928 1.057 1.495 1.057.566 0 1.256-.278 1.494-1.057a1.235 1.235 0 011.917-.63 1.575 1.575 0 001.938-.006 1.368 1.368 0 00.496-1.61 1.234 1.234 0 011.191-1.662 1.494 1.494 0 001.536-1.046 1.363 1.363 0 00-.596-1.6 1.235 1.235 0 010-2.06zm17.584 10.031l7.406 7.407-1.745 1.745-7.407-7.406 1.746-1.746zm-3.703 3.703l7.406 7.407-1.745 1.745-7.407-7.406 1.746-1.746zm-3.703 3.704l7.406 7.406-1.746 1.745-7.406-7.406 1.746-1.745zm-3.703 3.703l7.406 7.406-1.746 1.746L44.8 45.31l1.746-1.745zm-3.703 3.703l3.703 3.703-1.746 1.746-3.703-3.703 1.746-1.746zm5.66-20.985l1.746 1.746-3.009 3.009-1.746-1.746 3.01-3.009zm-4.629 4.63l1.746 1.745-7.715 7.715-1.746-1.746 7.715-7.715zm19.379-19.84a7.235 7.235 0 00-5.273 5.273 1.235 1.235 0 01-2.395 0 7.236 7.236 0 00-5.274-5.273 1.235 1.235 0 010-2.395 7.235 7.235 0 005.274-5.274 1.234 1.234 0 012.395 0 7.235 7.235 0 005.273 5.274 1.235 1.235 0 010 2.395zm-6.47-4.256a9.689 9.689 0 01-3.059 3.058 9.689 9.689 0 013.058 3.058 9.688 9.688 0 013.058-3.058 9.688 9.688 0 01-3.058-3.058zM17.485 36.724l9.31 9.31-1.746 1.745-9.31-9.31 1.746-1.745zm-4.268-4.269l2.468 2.47-1.745 1.745-2.47-2.469 1.747-1.746z" fill="#4C858B"/><path d="M3.703 51.844h11.11a1.234 1.234 0 011.234 1.234v1.17a19.361 19.361 0 0120.791-1.152L39 54.313h10.375a6.17 6.17 0 015.094 9.653l13.166-6.541a5.826 5.826 0 012.531-.604l.531-.005a5.789 5.789 0 012.633 10.97l-15.146 7.573a11.164 11.164 0 01-4.968 1.172H3.703a1.234 1.234 0 01-1.234-1.234V53.078a1.234 1.234 0 011.234-1.234zM57.08 73.15l15.146-7.573a3.322 3.322 0 00-1.484-6.292h-.026l-.53.004a3.344 3.344 0 00-1.453.347l-13.871 6.891c-.17.085-.359.13-.55.13H38.267a1.234 1.234 0 010-2.47h11.109a3.703 3.703 0 100-7.406H38.677c-.212 0-.42-.054-.605-.158l-2.444-1.375a16.897 16.897 0 00-18.839 1.533l-.742.593v16.688h37.169a8.685 8.685 0 003.864-.912zm-52.142.912h8.64v-19.75h-8.64v19.75z" fill="#4C858B"/><path d="M9.258 70.36a1.851 1.851 0 110-3.703 1.851 1.851 0 010 3.702zm41.713-39.14l1.746 1.747-9.875 9.875-1.746-1.746 9.875-9.875z" fill="#4C858B"/></svg>